<svg width="39" height="30" viewBox="0 0 39 30" fill="none" xmlns="http://www.w3.org/2000/svg">
<path d="M25.7143 14.5446C25.7143 15.9777 24.5491 17.1429 23.1161 17.1429H4.74107C3.30804 17.1429 2.14286 15.9777 2.14286 14.5446V11.7857C2.14286 5.27679 7.41964 0 13.9286 0C20.4375 0 25.7143 5.27679 25.7143 11.7857V14.5446ZM32.1429 17.1429C32.0089 17.1429 31.875 17.1362 31.7478 17.1228C30.6563 20.692 27.442 23.3304 23.5714 23.5513V27.3214C23.5714 28.8013 22.3728 30 20.8929 30H17.6786C16.1987 30 15 28.8013 15 27.3214V23.5714H12.8571V27.3214C12.8571 28.8013 11.6585 30 10.1786 30H6.96429C5.48438 30 4.28571 28.8013 4.28571 27.3214V23.5714H2.14286C0.957589 23.5714 0 22.6138 0 21.4286C0 20.2433 0.957589 19.2857 2.14286 19.2857H6.96429H10.1786H17.6786H20.8929H23.0357C25.7009 19.2857 27.8571 17.1295 27.8571 14.4643V12.8571V10.7143V9.64286C27.8571 7.27902 29.779 5.35714 32.1429 5.35714C35.692 5.35714 38.5714 8.23661 38.5714 11.7857V12.8571C38.5714 15.221 36.6496 17.1429 34.2857 17.1429H32.1429ZM33.2143 12.8571C33.4984 12.8571 33.771 12.7443 33.9719 12.5433C34.1728 12.3424 34.2857 12.0699 34.2857 11.7857C34.2857 11.5016 34.1728 11.229 33.9719 11.0281C33.771 10.8272 33.4984 10.7143 33.2143 10.7143C32.9301 10.7143 32.6576 10.8272 32.4567 11.0281C32.2557 11.229 32.1429 11.5016 32.1429 11.7857C32.1429 12.0699 32.2557 12.3424 32.4567 12.5433C32.6576 12.7443 32.9301 12.8571 33.2143 12.8571Z" fill="#FEFFFF"/>
</svg>
