<svg width="39" height="30" viewBox="0 0 39 30" fill="none" xmlns="http://www.w3.org/2000/svg">
<path d="M30.8438 0.497416L30.6965 0.356822C30.3818 0.0488531 29.9266 -0.0716566 29.4981 0.042158C29.0696 0.155973 28.7348 0.484027 28.621 0.912505L28.5675 1.10666C28.3465 1.89667 28.226 2.69337 28.1992 3.49007C29.8261 4.86924 31.0714 6.69027 31.7677 8.76571C31.2187 8.63851 30.663 8.57156 30.0939 8.57156C30.0538 8.57156 30.0203 8.57156 29.9801 8.57156C28.7482 5.62577 26.1974 3.38965 23.0441 2.59294L22.8165 2.53269C22.4014 2.42557 21.9528 2.49252 21.5779 2.70676C20.8549 3.12185 20.5335 4.01228 20.8281 4.7889C21.8256 7.43341 23.794 9.56911 26.2778 10.7943C26.0301 11.2362 25.8493 11.7316 25.769 12.2538L18.7259 8.23681C16.6571 7.05849 14.3139 6.43586 11.9305 6.43586C9.76797 6.43586 7.76617 7.56062 6.64811 9.40843C5.95853 8.57156 4.91411 8.04266 3.74919 8.04266C1.68044 8.04266 0 9.7231 0 11.7918C0 13.8606 1.68044 15.541 3.74919 15.541C4.50572 15.541 5.20869 15.3201 5.79785 14.9318C6.1259 16.0833 6.76862 17.1478 7.69922 18.0048L17.2195 26.735C18.0095 27.4581 19.0405 27.8598 20.1117 27.8598H27.8511C29.0361 27.8598 29.9935 26.9024 29.9935 25.7174C29.9935 24.5324 29.0361 23.575 27.8511 23.575H23.5663H22.4416H21.4239V20.6627C21.4239 17.7905 19.5226 15.2732 16.7642 14.4832L14.7022 13.8941C14.1331 13.7334 13.805 13.1375 13.9657 12.5685C14.1264 11.9994 14.7223 11.6713 15.2913 11.832L17.3534 12.4212C21.0356 13.4723 23.5663 16.8332 23.5663 20.6627V21.7138L27.3155 19.5446L27.744 19.2969H34.526C36.7554 19.2969 38.5631 17.4893 38.5631 15.2598C38.5631 14.0481 38.0141 12.8965 37.0768 12.1333L34.7603 10.2453C34.4524 9.99759 34.131 9.76996 33.7896 9.57581C34.3519 6.27518 33.2673 2.88083 30.8505 0.504112L30.8438 0.497416ZM9.52026 26.0722C8.5361 26.7283 8.2683 28.0606 8.92441 29.0448C9.58051 30.029 10.9128 30.2968 11.897 29.6407L14.9767 27.5853L11.7229 24.606L9.52026 26.0789V26.0722ZM32.1359 13.9342C32.1359 13.6501 32.2487 13.3777 32.4496 13.1768C32.6505 12.9759 32.923 12.863 33.2071 12.863C33.4912 12.863 33.7637 12.9759 33.9645 13.1768C34.1654 13.3777 34.2783 13.6501 34.2783 13.9342C34.2783 14.2183 34.1654 14.4908 33.9645 14.6917C33.7637 14.8926 33.4912 15.0054 33.2071 15.0054C32.923 15.0054 32.6505 14.8926 32.4496 14.6917C32.2487 14.4908 32.1359 14.2183 32.1359 13.9342Z" fill="#00D1FF"/>
</svg>
