<svg width="33" height="34" viewBox="0 0 33 34" fill="none" xmlns="http://www.w3.org/2000/svg">
<path d="M14.4375 23.6322V29.2074C9.25547 28.3373 5.16269 24.2445 4.29902 19.0625H10.8861L14.4375 23.6322ZM18.5625 23.6322L22.1139 19.0625H28.701C27.8373 24.2445 23.7445 28.3373 18.5625 29.201V23.6322ZM22.6875 14.9375L22.2234 14.0158C21.8754 13.3197 21.16 12.875 20.3801 12.875H12.6199C11.84 12.875 11.1246 13.3133 10.7766 14.0158L10.3125 14.9375H4.29902C5.27871 9.08516 10.3705 4.625 16.5 4.625C22.6295 4.625 27.7213 9.08516 28.701 14.9375H22.6875ZM16.5 33.5C20.8761 33.5 25.0729 31.7616 28.1673 28.6673C31.2616 25.5729 33 21.3761 33 17C33 12.6239 31.2616 8.42709 28.1673 5.33274C25.0729 2.23839 20.8761 0.5 16.5 0.5C12.1239 0.5 7.92709 2.23839 4.83274 5.33274C1.73839 8.42709 0 12.6239 0 17C0 21.3761 1.73839 25.5729 4.83274 28.6673C7.92709 31.7616 12.1239 33.5 16.5 33.5Z" fill="#FEFFFF"/>
</svg>
