<svg width="215" height="150" viewBox="0 0 215 150" fill="none" xmlns="http://www.w3.org/2000/svg">
<path d="M18.1453 57.221C41.2479 35.0558 72.5872 21.4286 107.141 21.4286C141.694 21.4286 173.034 35.0558 196.136 57.221C200.422 61.3058 207.185 61.1719 211.27 56.9196C215.355 52.6674 215.221 45.8705 210.969 41.7857C184.049 15.904 147.453 0 107.141 0C66.8283 0 30.2323 15.904 3.2792 41.7522C-0.973037 45.8705 -1.10697 52.6339 2.97786 56.9196C7.06268 61.2054 13.8596 61.3393 18.1118 57.221H18.1453ZM107.141 75C126.159 75 143.502 82.0647 156.761 93.75C161.214 97.6674 167.978 97.2321 171.895 92.8125C175.813 88.3929 175.377 81.596 170.958 77.6786C153.949 62.6786 131.583 53.5714 107.141 53.5714C82.6988 53.5714 60.3328 62.6786 43.3573 77.6786C38.9042 81.596 38.5024 88.3594 42.4198 92.8125C46.3372 97.2656 53.1006 97.6674 57.5537 93.75C70.7792 82.0647 88.1229 75 107.174 75H107.141ZM128.569 128.571C128.569 122.888 126.312 117.438 122.293 113.419C118.274 109.401 112.824 107.143 107.141 107.143C101.458 107.143 96.0072 109.401 91.9885 113.419C87.9699 117.438 85.7122 122.888 85.7122 128.571C85.7122 134.255 87.9699 139.705 91.9885 143.724C96.0072 147.742 101.458 150 107.141 150C112.824 150 118.274 147.742 122.293 143.724C126.312 139.705 128.569 134.255 128.569 128.571Z" fill="#AAED70"/>
</svg>
