<svg width="200" height="186" viewBox="0 0 200 186" fill="none" xmlns="http://www.w3.org/2000/svg">
<path d="M16.9375 76.4062C38.5 55.7188 67.75 43 100 43C132.25 43 161.5 55.7188 183.063 76.4062C187.063 80.2188 193.375 80.0938 197.188 76.125C201 72.1562 200.875 65.8125 196.906 62C171.781 37.8438 137.625 23 100 23C62.375 23 28.2188 37.8438 3.06254 61.9688C-0.906215 65.8125 -1.03121 72.125 2.78129 76.125C6.59379 80.125 12.9375 80.25 16.9063 76.4062H16.9375ZM100 93C117.75 93 133.938 99.5938 146.313 110.5C150.469 114.156 156.781 113.75 160.438 109.625C164.094 105.5 163.688 99.1562 159.563 95.5C143.688 81.5 122.813 73 100 73C77.1875 73 56.3125 81.5 40.4688 95.5C36.3125 99.1562 35.9375 105.469 39.5938 109.625C43.25 113.781 49.5625 114.156 53.7188 110.5C66.0625 99.5938 82.25 93 100.031 93H100ZM120 143C120 137.696 117.893 132.609 114.142 128.858C110.391 125.107 105.304 123 100 123C94.6957 123 89.6086 125.107 85.8579 128.858C82.1072 132.609 80 137.696 80 143C80 148.304 82.1072 153.391 85.8579 157.142C89.6086 160.893 94.6957 163 100 163C105.304 163 110.391 160.893 114.142 157.142C117.893 153.391 120 148.304 120 143Z" fill="#F5D847" fill-opacity="0.43"/>
<path d="M35 14L166 167" stroke="#F5D847" stroke-width="20" stroke-linecap="round"/>
</svg>
